PathFileType	4	(X/Y/Z)	D:\TRACE\v60_Jaco2_6-2-23\JustArmDRS_Motion1_3-v60.trc
DataRate	CameraRate	NumFrames	NumMarkers	Units	OrigDataRate	OrigDataStartFrame	OrigNumFrames
100.00	100.00	      35	9	mm	100.00	846	      6763
Frame#	Time	front left toe			Front right toe			aft left toe			aft right toe			Arm			FL body			FR body			AL Body			AR Body			
		X1	Y1	Z1	X2	Y2	Z2	X3	Y3	Z3	X4	Y4	Z4	X5	Y5	Z5	X6	Y6	Z6	X7	Y7	Z7	X8	Y8	Z8	X9	Y9	Z9	

846	8.450	-155.58368	17.61376	-169.99408	251.85815	11.84708	-213.56683	-90.66741	26.50971	434.69342	313.17303	25.91249	423.80231	88.24165	1205.11133	-257.13000	-22.95012	571.28241	-324.28687	136.27356	567.03644	-340.15457	71.78349	597.07196	616.21338	227.64127	587.15533	601.83557	
847	8.460	-156.08127	17.74319	-169.97488	251.69162	12.10406	-213.24208	-90.96473	26.45247	434.79443	312.75211	25.73384	424.05801	88.01732	1205.16455	-257.07230	-23.38132	571.40363	-323.99500	135.91830	567.06567	-339.85480	71.49580	596.90173	616.37836	227.20842	586.60693	601.91858	
848	8.470	-156.63304	17.87079	-169.96500	251.32788	12.27942	-213.09238	-91.42736	26.25033	434.88470	311.98914	25.51689	424.18945	87.70579	1205.22607	-257.00763	-23.66996	571.52893	-323.78928	135.70480	567.46344	-340.04968	71.26779	596.74475	616.51031	227.43207	586.94971	602.34662	
849	8.480	-157.38457	18.10106	-169.92740	250.78970	12.39429	-213.03983	-91.97166	26.02968	434.97324	311.26260	25.24985	424.41141	87.42046	1205.28284	-256.89615	-23.82909	571.66870	-323.70285	135.95888	567.69330	-340.25000	70.87904	596.55103	616.65369	226.88237	586.19562	602.21521	
850	8.490	-157.76250	18.08944	-169.83670	250.00000	12.53691	-213.04147	-92.67357	25.87055	435.09937	311.02841	25.08326	424.51596	87.12489	1205.29395	-256.69797	-24.52018	571.90833	-323.46585	135.51930	567.76825	-340.20953	70.60331	596.35254	616.75323	226.32080	586.22803	602.51373	
851	8.500	-158.05411	18.18629	-169.75920	249.59592	12.61406	-213.05550	-93.01109	25.68351	435.11371	310.93335	25.01897	424.58521	86.99252	1205.37500	-256.56854	-24.75269	571.98639	-323.37283	134.95888	567.79706	-339.97617	69.90245	596.12170	616.56689	225.86263	585.91510	602.62756	
852	8.510	-158.60757	18.35036	-169.66783	249.27568	12.70320	-212.92802	-93.61324	25.50082	435.00027	310.51648	24.82473	424.58185	86.80759	1205.40405	-256.44592	-25.50285	572.17786	-323.15485	133.93849	567.71320	-339.53183	69.96181	595.80396	617.06714	225.74792	585.65375	602.94910	
853	8.520	-159.15367	18.34927	-169.55327	248.67888	12.78159	-212.87294	-93.87899	25.33298	434.98468	309.62033	24.49346	424.58359	86.66447	1205.47681	-256.33008	-25.76285	572.30096	-323.01111	133.49239	567.83856	-339.35660	69.70791	595.52350	617.30212	225.44543	585.49939	603.07397	
854	8.530	-159.93768	18.51565	-169.29388	248.20238	12.85040	-212.70924	-94.50916	25.14784	435.15390	308.88727	24.26127	424.67392	86.52409	1205.30151	-256.04007	-26.25306	572.47040	-322.85403	132.63248	567.72791	-338.78781	69.27961	595.41443	617.44556	225.40875	585.59747	603.44611	
855	8.540	-160.31219	18.53750	-169.18582	247.42273	12.83723	-212.63283	-95.17207	24.86045	435.19791	308.29675	24.05854	424.80576	86.12447	1205.48315	-255.99393	-26.61637	572.54877	-322.75510	133.16368	568.16187	-339.09503	68.93822	595.18329	617.56952	224.99245	585.31018	603.55627	
856	8.550	-160.82146	18.67546	-169.11913	246.57797	13.00018	-212.60480	-95.66927	24.65559	435.31329	307.97089	23.93269	424.88742	85.61829	1205.54272	-255.82417	-27.41154	572.87756	-322.48950	132.61533	568.38617	-338.79922	68.42834	594.98535	617.72656	224.70624	585.21753	603.75665	
857	8.560	-161.34396	18.75094	-169.03482	246.00975	13.18423	-212.59395	-96.16354	24.52696	435.41785	307.51840	23.68029	424.87592	84.95776	1205.57227	-255.57478	-27.86689	572.92291	-322.34464	131.73811	568.34546	-338.34335	67.83282	594.73749	617.91901	224.01709	584.94043	603.69904	
858	8.570	-162.07912	18.77153	-168.91209	245.55750	13.29129	-212.50735	-96.91077	24.32689	435.53552	306.58408	23.34356	424.79016	84.43405	1205.59070	-255.38110	-28.38367	573.00146	-322.18570	130.71751	568.58136	-338.22916	67.59721	594.56421	618.06451	223.76039	584.65234	603.87592	
859	8.580	-162.93033	19.02839	-168.83591	245.05832	13.35255	-212.39325	-97.48175	24.14716	435.67551	305.98822	23.15225	424.89230	83.95326	1205.72705	-255.20291	-29.08511	573.20221	-321.83673	129.81569	568.62457	-337.70200	66.95559	594.44489	618.23767	223.28273	584.37616	604.00214	
860	8.590	-163.31921	19.07712	-168.92973	244.30455	13.34022	-212.40002	-97.94736	23.95774	435.90329	305.35565	22.93764	424.92960	83.52833	1205.73352	-255.11792	-29.63173	573.34003	-321.56369	129.55634	568.86047	-338.04773	66.28778	594.26410	618.44788	223.06554	584.15192	603.98389	
861	8.600	-163.84218	19.29050	-169.00511	243.63660	13.45146	-212.29515	-98.58509	23.46798	435.88861	304.73785	22.75091	425.05948	82.86559	1205.98035	-255.13248	-30.09230	573.44415	-321.42001	129.59160	569.04803	-338.14120	65.96682	594.04041	618.59827	221.99615	584.12762	604.50580	
862	8.610	-164.54053	19.45269	-168.79858	243.03761	13.60685	-212.08064	-99.06148	23.35889	435.83698	303.82245	22.40861	425.01990	82.20324	1206.10559	-254.85228	-31.10427	573.84253	-321.31436	128.51122	569.00958	-337.62509	65.40257	593.74359	618.79346	221.62860	583.95581	604.89185	
863	8.620	-165.36427	19.57621	-168.68690	242.42378	13.85793	-211.93169	-99.80913	23.06649	436.00223	303.24567	22.24203	425.16391	81.58549	1206.21277	-254.59782	-31.35579	573.83575	-320.89038	127.59155	569.24261	-337.41116	64.75441	593.50299	619.01025	221.23543	583.74847	605.16345	
864	8.630	-166.03671	19.64156	-168.61110	241.79585	14.11472	-211.95090	-100.49712	22.96296	436.09204	303.17130	22.20298	425.37320	80.86784	1206.27441	-254.29407	-32.26186	574.08258	-321.14777	126.51362	569.50970	-337.02454	64.28934	593.27252	619.28503	220.65053	583.53601	605.20233	
865	8.640	-166.52318	19.68744	-168.43198	240.93257	14.19668	-212.01683	-101.15016	22.65558	436.09747	302.26309	21.88818	425.62411	80.14861	1206.58875	-254.05466	-33.25258	574.27502	-320.72363	126.67677	569.87061	-337.46268	63.48045	593.06781	619.53748	219.81563	583.22504	605.32489	
866	8.650	-167.22232	19.77235	-168.29366	240.33276	14.22728	-211.91972	-101.60883	22.30043	436.36478	301.29916	21.65138	425.73700	79.37360	1206.68665	-253.56346	-33.92292	574.35248	-320.46945	126.04306	569.95190	-337.25833	63.04297	592.90424	619.70990	218.97385	582.81433	605.30176	
867	8.660	-168.12021	19.90441	-168.23019	239.60541	14.25692	-211.90616	-102.47412	22.20940	436.55331	300.73636	21.58571	425.78250	78.66031	1206.79736	-253.12770	-34.39898	574.46039	-320.41876	124.78959	569.94659	-336.60596	62.35513	592.62689	619.93250	218.54059	582.55365	605.55487	
868	8.670	-168.81282	20.09027	-168.24126	238.93161	14.35798	-211.57619	-103.40170	22.18691	436.67468	300.38281	21.45505	425.90536	78.05226	1207.00354	-253.03682	-34.98237	574.50299	-319.89444	124.64075	570.32709	-336.89194	61.68752	592.32214	620.21942	218.83743	582.39948	605.73938	
869	8.680	-169.62210	20.28822	-168.08817	237.97673	14.55776	-211.64748	-103.93221	21.77090	436.61719	298.89825	21.09479	426.05353	77.16862	1207.17712	-252.60391	-36.07431	574.83087	-320.00134	123.75272	570.50610	-336.57571	61.27439	592.06348	620.03955	217.46161	582.06213	605.87585	
870	8.690	-170.27336	20.33827	-168.02071	237.46358	14.83808	-211.59552	-104.30176	21.43498	436.62442	298.56100	20.76123	426.09329	76.72604	1207.29163	-252.20363	-36.65781	575.01953	-319.59991	122.41997	570.47845	-335.83020	60.35534	591.82404	620.70477	216.64894	581.80573	606.17334	
871	8.700	-171.06575	20.46633	-167.99217	236.76793	15.06239	-211.42010	-105.43956	21.20607	436.84015	297.80173	20.51510	426.13934	75.64012	1207.63342	-252.08684	-37.56905	575.21906	-319.30334	121.66650	570.56812	-335.56094	59.82603	591.52478	620.92273	215.92668	581.65198	606.64539	
872	8.710	-172.08932	20.57462	-167.79314	235.95671	15.05926	-211.38919	-106.13618	21.10111	436.92490	297.18176	20.41182	426.10767	74.69831	1207.77551	-251.80786	-38.23724	575.36389	-319.02573	121.29591	571.04486	-335.89719	59.15919	591.34314	621.15448	215.25150	581.51837	606.68286	
873	8.720	-172.76434	20.54649	-167.50412	235.11488	15.09408	-211.27058	-106.68829	20.83861	436.77234	296.06143	20.00995	426.01346	73.88705	1207.68530	-251.40779	-39.28916	575.66455	-318.68692	120.42197	571.18658	-335.61792	58.53243	591.08405	621.51324	214.79680	581.28754	606.89801	
874	8.730	-173.18434	20.55911	-167.53571	234.36855	15.44259	-211.09958	-107.71890	20.61767	436.88736	295.45370	19.89582	426.14398	72.95105	1207.86243	-251.24629	-40.18198	575.90076	-318.51254	119.30964	571.29065	-334.99713	57.53984	590.96600	621.72870	213.94942	581.10986	607.45752	
875	8.740	-174.14108	20.82533	-167.56891	233.79144	15.51334	-211.03285	-108.57167	20.49119	437.27844	294.81396	19.69152	426.31250	71.94772	1207.92188	-250.91135	-40.93888	576.07196	-318.37766	118.10001	571.62726	-334.41098	56.74220	590.65234	621.90503	213.10042	580.93073	607.67596	
876	8.750	-175.23479	20.95021	-167.40829	232.64497	15.55689	-211.09605	-109.04253	19.98163	437.43655	293.51489	19.22284	426.24332	70.78264	1207.99121	-250.64326	-41.96745	576.22321	-318.11459	117.93129	571.86481	-335.09909	56.18692	590.50861	622.24860	212.74931	580.79425	607.33862	
877	8.760	-175.71104	21.13920	-167.30733	231.78801	15.70807	-211.03648	-109.70762	19.61086	437.45285	292.92859	19.20162	426.29395	69.70457	1208.12842	-250.40428	-42.64204	576.28461	-317.88489	116.43405	571.80078	-334.39935	55.25378	590.31506	622.42950	211.85739	580.54321	607.59814	
878	8.770	-176.55630	21.17728	-167.32784	231.17665	15.86083	-210.84027	-110.85619	19.57792	437.52533	292.48044	19.12167	426.47000	68.71574	1208.44849	-250.23669	-43.60154	576.43274	-317.57687	115.91027	571.99933	-334.08887	53.75828	589.81506	621.53119	210.50627	580.00458	607.94897	
879	8.780	-177.87682	21.47523	-167.21516	230.27994	16.12525	-210.62158	-111.77180	19.50590	437.54239	291.13794	18.73916	426.67770	67.86758	1208.54919	-249.90506	-44.57719	576.66797	-317.29788	115.17800	572.44299	-334.34320	53.69257	589.56165	622.88635	209.84663	579.76288	608.11780	
880	8.790	-178.41615	21.49955	-167.11887	229.39629	16.14349	-210.57594	-112.19586	19.10824	437.60590	290.66479	18.71342	426.88614	66.88668	1208.75977	-249.51221	-45.48346	576.89410	-316.98206	113.66755	572.53339	-333.67776	52.77332	589.30438	623.08905	209.00209	579.82538	608.43951	
